<?xml version="1.0" encoding="utf-8"?>
<!DOCTYPE svg PUBLIC "-//W3C//DTD SVG 1.1//EN" "http://www.w3.org/Graphics/SVG/1.1/DTD/svg11.dtd">
<svg version="1.1" id="Layer_1" xmlns="http://www.w3.org/2000/svg" xmlns:xlink="http://www.w3.org/1999/xlink" x="0px" y="0px"
	 width="100px" height="100px" viewBox="0 0 100 100" style="enable-background:new 0 0 100 100;" xml:space="preserve">
<path style="fill:#019BD4;" d="M100,94c0,3.313-2.687,6-6,6H6c-3.313,0-6-2.687-6-6V6c0-3.313,2.687-6,6-6h88c3.313,0,6,2.687,6,6
	V94z"/>
<g>
	<path id="svg_1" fill="#019BD4" d="m100,94c0,3.313004 -2.686996,6 -6,6l-88,0c-3.313,0 -6,-2.686996 -6,-6l0,-88c0,-3.313 2.687,-6 6,-6l88,0c3.313004,0 6,2.687 6,6l0,88z"/>
    <rect id="svg_4" height="61" width="74" y="20" x="13" stroke-linecap="null" stroke-linejoin="null" stroke-dasharray="null" stroke-width="null" fill="#000000"/>
    <rect id="svg_5" height="14" width="35.5" y="21" x="14" stroke-linecap="null" stroke-linejoin="null" stroke-dasharray="null" stroke-width="null" fill="#019bd4"/>
    <rect id="svg_11" height="14" width="35.5" y="21" x="50.5" stroke-linecap="null" stroke-linejoin="null" stroke-dasharray="null" stroke-width="null" fill="#019bd4"/>
    <rect id="svg_15" height="14" width="35.5" y="36" x="14" stroke-linecap="null" stroke-linejoin="null" stroke-dasharray="null" stroke-width="null" fill="#019bd4"/>
    <rect id="svg_16" height="14" width="35.5" y="51" x="14" stroke-linecap="null" stroke-linejoin="null" stroke-dasharray="null" stroke-width="null" fill="#019bd4"/>
    <rect id="svg_17" height="14" width="35.5" y="66" x="14" stroke-linecap="null" stroke-linejoin="null" stroke-dasharray="null" stroke-width="null" fill="#019bd4"/>
    <rect id="svg_18" height="14" width="35.5" y="36" x="50.5" stroke-linecap="null" stroke-linejoin="null" stroke-dasharray="null" stroke-width="null" fill="#019bd4"/>
    <rect id="svg_19" height="14" width="35.5" y="51" x="50.5" stroke-linecap="null" stroke-linejoin="null" stroke-dasharray="null" stroke-width="null" fill="#019bd4"/>
    <rect id="svg_20" height="14" width="35.5" y="66" x="50.5" stroke-linecap="null" stroke-linejoin="null" stroke-dasharray="null" stroke-width="null" fill="#019bd4"/>
</g>
</svg>
